<svg xmlns="http://www.w3.org/2000/svg" viewBox="0 0 256 256">
  <path d="M150 150 L210 92 L198 86 L186 108 L168 70 L154 78 L170 128 Z" fill="#C48A2A" stroke="#3A2A10" stroke-width="4" stroke-linejoin="round"/>
  <path d="M186 108 L210 92 L200 128 L186 122 Z" fill="#2A2A2A"/>
  <ellipse cx="92" cy="86" rx="16" ry="46" transform="rotate(-18 92 86)" fill="#F6D023" stroke="#3A2A10" stroke-width="4"/>
  <ellipse cx="148" cy="78" rx="15" ry="50" transform="rotate(14 148 78)" fill="#F6D023" stroke="#3A2A10" stroke-width="4"/>
  <ellipse cx="92" cy="60" rx="10" ry="18" transform="rotate(-18 92 60)" fill="#2A2A2A"/>
  <ellipse cx="148" cy="52" rx="10" ry="20" transform="rotate(14 148 52)" fill="#2A2A2A"/>
  <ellipse cx="128" cy="168" rx="50" ry="46" fill="#F6D023" stroke="#3A2A10" stroke-width="4"/>
  <ellipse cx="128" cy="114" rx="46" ry="42" fill="#F6D023" stroke="#3A2A10" stroke-width="4"/>
  <circle cx="104" cy="122" r="12" fill="#EE4D3A"/>
  <circle cx="152" cy="122" r="12" fill="#EE4D3A"/>
  <ellipse cx="114" cy="108" rx="7" ry="9" fill="#2A2A2A"/>
  <ellipse cx="142" cy="108" rx="7" ry="9" fill="#2A2A2A"/>
  <circle cx="116" cy="106" r="3" fill="#fff"/>
  <circle cx="144" cy="106" r="3" fill="#fff"/>
  <path d="M120 132 Q128 140 136 132" fill="none" stroke="#3A2A10" stroke-width="3" stroke-linecap="round"/>
  <ellipse cx="86" cy="168" rx="12" ry="10" fill="#F6D023" stroke="#3A2A10" stroke-width="3"/>
  <ellipse cx="170" cy="168" rx="12" ry="10" fill="#F6D023" stroke="#3A2A10" stroke-width="3"/>
  <ellipse cx="108" cy="208" rx="14" ry="10" fill="#F6D023" stroke="#3A2A10" stroke-width="3"/>
  <ellipse cx="148" cy="208" rx="14" ry="10" fill="#F6D023" stroke="#3A2A10" stroke-width="3"/>
  <polygon points="118,148 128,168 138,148" fill="#3A2A10"/>
</svg>
